<svg width="1024" height="1024" viewBox="0 0 1024 1024" fill="none" xmlns="http://www.w3.org/2000/svg">
<mask id="mask0_436_22" style="mask-type:alpha" maskUnits="userSpaceOnUse" x="0" y="0" width="1024" height="1024">
<rect width="1024" height="1024" rx="150" fill="#333333"/>
</mask>
<g mask="url(#mask0_436_22)">
</g>
<g clip-path="url(#clip0_436_22)">
<g filter="url(#filter0_d_436_22)">
<path d="M512 212C346.316 212 212 346.315 212 512C212 677.684 346.316 812 512 812C561.212 812 608.745 800.117 651.327 777.749L780.039 811.259C793.667 814.811 807.593 806.639 811.143 793.01C812.24 788.798 812.241 784.373 811.144 780.158L777.653 651.506C800.084 608.882 812 561.284 812 512C812 346.315 677.686 212 512 212ZM474.449 542H609.5L612.553 542.204C623.536 543.695 632 553.109 632 564.5C632 575.891 623.536 585.305 612.553 586.796L609.5 587H474.449L471.395 586.796C460.412 585.305 451.949 575.891 451.949 564.5C451.949 553.109 460.412 543.695 471.395 542.204L474.449 542ZM414.5 437H609.5L612.553 437.206C623.536 438.695 632 448.109 632 459.5C632 470.891 623.536 480.305 612.553 481.796L609.5 482H414.5L411.446 481.796C400.466 480.305 392 470.891 392 459.5C392 448.109 400.466 438.695 411.446 437.206L414.5 437Z" fill="white"/>
</g>
</g>
<defs>
<filter id="filter0_d_436_22" x="182" y="182" width="708" height="708.089" filterUnits="userSpaceOnUse" color-interpolation-filters="sRGB">
<feFlood flood-opacity="0" result="BackgroundImageFix"/>
<feColorMatrix in="SourceAlpha" type="matrix" values="0 0 0 0 0 0 0 0 0 0 0 0 0 0 0 0 0 0 127 0" result="hardAlpha"/>
<feOffset dx="24" dy="24"/>
<feGaussianBlur stdDeviation="27"/>
<feComposite in2="hardAlpha" operator="out"/>
<feColorMatrix type="matrix" values="0 0 0 0 0 0 0 0 0 0 0 0 0 0 0 0 0 0 0.3 0"/>
<feBlend mode="normal" in2="BackgroundImageFix" result="effect1_dropShadow_436_22"/>
<feBlend mode="normal" in="SourceGraphic" in2="effect1_dropShadow_436_22" result="shape"/>
</filter>
<clipPath id="clip0_436_22">
<rect width="720" height="720" fill="white" transform="matrix(-1 0 0 1 872 152)"/>
</clipPath>
</defs>
</svg>
