<svg width="94" height="41" viewBox="0 0 94 41" fill="none" xmlns="http://www.w3.org/2000/svg">
<g filter="url(#filter0_d_424_10)">
<path d="M12.692 4.302H27.326V19.404H24.446V6.966H15.428V19.404H12.692V4.302ZM14.024 15.282H26.192V17.982H14.024V15.282ZM35.264 3.15H45.974V5.418H35.264V3.15ZM34.634 9.774H46.55V12.114H34.634V9.774ZM35.84 12.924H45.434V19.638H42.824V15.156H38.324V19.692H35.84V12.924ZM37.154 16.92H43.976V19.152H37.154V16.92ZM38.63 4.014L41.24 4.266C41.108 5.046 40.952 5.868 40.772 6.732C40.604 7.584 40.436 8.406 40.268 9.198C40.1 9.978 39.944 10.662 39.8 11.25H37.118C37.25 10.782 37.382 10.254 37.514 9.666C37.658 9.066 37.796 8.448 37.928 7.812C38.072 7.164 38.204 6.516 38.324 5.868C38.444 5.22 38.546 4.602 38.63 4.014ZM35.858 6.408H43.076V8.604H35.858V6.408ZM42.428 6.408H42.68L43.076 6.318L44.912 6.426C44.9 7.242 44.858 8.052 44.786 8.856C44.726 9.648 44.66 10.38 44.588 11.052L42.14 10.89C42.188 10.41 42.23 9.912 42.266 9.396C42.314 8.868 42.35 8.364 42.374 7.884C42.398 7.404 42.416 6.996 42.428 6.66V6.408ZM30.188 4.338L31.862 2.754C32.186 3.018 32.54 3.318 32.924 3.654C33.308 3.978 33.674 4.308 34.022 4.644C34.37 4.968 34.646 5.262 34.85 5.526L33.068 7.326C32.876 7.05 32.618 6.738 32.294 6.39C31.97 6.03 31.622 5.67 31.25 5.31C30.878 4.95 30.524 4.626 30.188 4.338ZM29.54 8.064H32.834V10.566H29.54V8.064ZM31.844 19.638L31.34 17.316L31.88 16.578L35.462 14.184C35.522 14.532 35.612 14.934 35.732 15.39C35.852 15.834 35.966 16.188 36.074 16.452C35.27 17.016 34.61 17.484 34.094 17.856C33.578 18.216 33.17 18.504 32.87 18.72C32.57 18.948 32.342 19.128 32.186 19.26C32.042 19.404 31.928 19.53 31.844 19.638ZM31.844 19.638C31.772 19.434 31.658 19.188 31.502 18.9C31.358 18.612 31.196 18.33 31.016 18.054C30.848 17.79 30.692 17.574 30.548 17.406C30.752 17.238 30.956 16.992 31.16 16.668C31.376 16.332 31.484 15.954 31.484 15.534V8.064H33.914V17.298C33.914 17.298 33.806 17.376 33.59 17.532C33.386 17.688 33.146 17.886 32.87 18.126C32.606 18.378 32.366 18.636 32.15 18.9C31.946 19.164 31.844 19.41 31.844 19.638ZM47.648 6.822H55.604V8.694H47.648V6.822ZM49.214 14.796H54.254V16.434H49.214V14.796ZM49.286 17.046H54.074V18.936H49.286V17.046ZM50.744 4.536H52.904V12.15H50.744V4.536ZM50.942 13.554H52.652V18.018H50.942V13.554ZM54.488 2.628L55.748 4.32C55.028 4.464 54.236 4.59 53.372 4.698C52.508 4.794 51.632 4.872 50.744 4.932C49.868 4.98 49.022 5.01 48.206 5.022C48.17 4.782 48.098 4.506 47.99 4.194C47.894 3.87 47.792 3.6 47.684 3.384C48.476 3.336 49.286 3.276 50.114 3.204C50.942 3.132 51.734 3.048 52.49 2.952C53.246 2.856 53.912 2.748 54.488 2.628ZM52.634 8.1C52.79 8.172 53.012 8.298 53.3 8.478C53.6 8.658 53.912 8.856 54.236 9.072C54.572 9.276 54.878 9.468 55.154 9.648C55.43 9.828 55.622 9.96 55.73 10.044L54.452 12.06C54.296 11.856 54.092 11.628 53.84 11.376C53.6 11.112 53.342 10.842 53.066 10.566C52.79 10.29 52.52 10.032 52.256 9.792C52.004 9.54 51.776 9.33 51.572 9.162L52.634 8.1ZM48.152 5.346L49.79 4.914C49.898 5.178 50.012 5.472 50.132 5.796C50.252 6.12 50.336 6.39 50.384 6.606L48.656 7.11C48.608 6.882 48.536 6.6 48.44 6.264C48.344 5.928 48.248 5.622 48.152 5.346ZM53.732 4.716L55.586 5.238C55.394 5.658 55.214 6.066 55.046 6.462C54.89 6.858 54.74 7.2 54.596 7.488L53.03 7.02C53.114 6.804 53.198 6.564 53.282 6.3C53.378 6.024 53.462 5.748 53.534 5.472C53.618 5.196 53.684 4.944 53.732 4.716ZM50.366 7.722L51.806 8.55C51.53 9.054 51.206 9.588 50.834 10.152C50.462 10.704 50.054 11.232 49.61 11.736C49.178 12.228 48.734 12.636 48.278 12.96C48.194 12.624 48.056 12.234 47.864 11.79C47.684 11.334 47.51 10.95 47.342 10.638C47.726 10.41 48.11 10.134 48.494 9.81C48.878 9.486 49.232 9.138 49.556 8.766C49.892 8.394 50.162 8.046 50.366 7.722ZM48.08 12.384H55.568V19.476H53.588V14.274H49.97V19.692H48.08V12.384ZM56.09 3.312H59.096V5.472H56.09V3.312ZM57.98 3.312H60.05V17.262C60.05 17.742 60.002 18.138 59.906 18.45C59.81 18.774 59.618 19.026 59.33 19.206C59.03 19.386 58.682 19.5 58.286 19.548C57.902 19.608 57.44 19.638 56.9 19.638C56.876 19.338 56.798 18.978 56.666 18.558C56.534 18.138 56.396 17.79 56.252 17.514C56.552 17.526 56.84 17.538 57.116 17.55C57.404 17.55 57.596 17.544 57.692 17.532C57.8 17.532 57.872 17.514 57.908 17.478C57.956 17.43 57.98 17.346 57.98 17.226V3.312ZM60.392 3.366H63.074V5.526H60.392V3.366ZM62.174 3.366H64.298V17.208C64.298 17.724 64.244 18.144 64.136 18.468C64.028 18.804 63.818 19.062 63.506 19.242C63.194 19.434 62.816 19.554 62.372 19.602C61.94 19.65 61.424 19.674 60.824 19.674C60.788 19.374 60.698 19.002 60.554 18.558C60.422 18.126 60.278 17.766 60.122 17.478C60.47 17.502 60.812 17.514 61.148 17.514C61.496 17.514 61.73 17.514 61.85 17.514C61.97 17.514 62.054 17.49 62.102 17.442C62.15 17.382 62.174 17.292 62.174 17.172V3.366ZM55.658 7.11L57.26 6.714C57.404 7.074 57.542 7.464 57.674 7.884C57.818 8.304 57.944 8.712 58.052 9.108C58.172 9.504 58.262 9.852 58.322 10.152L56.612 10.656C56.564 10.356 56.486 10.002 56.378 9.594C56.282 9.186 56.168 8.766 56.036 8.334C55.916 7.89 55.79 7.482 55.658 7.11ZM60.014 6.93L61.652 6.642C61.76 7.014 61.862 7.422 61.958 7.866C62.054 8.298 62.138 8.718 62.21 9.126C62.294 9.522 62.354 9.87 62.39 10.17L60.644 10.548C60.62 10.236 60.572 9.876 60.5 9.468C60.44 9.048 60.368 8.616 60.284 8.172C60.2 7.728 60.11 7.314 60.014 6.93ZM59.816 13.23C60.164 12.918 60.596 12.522 61.112 12.042C61.628 11.55 62.15 11.04 62.678 10.512L63.65 12.132C63.206 12.612 62.738 13.104 62.246 13.608C61.754 14.1 61.274 14.574 60.806 15.03L59.816 13.23ZM55.586 13.662C55.958 13.314 56.414 12.864 56.954 12.312C57.494 11.748 58.04 11.16 58.592 10.548L59.618 12.168C59.138 12.72 58.634 13.284 58.106 13.86C57.578 14.424 57.068 14.952 56.576 15.444L55.586 13.662ZM65.648 6.822H73.604V8.694H65.648V6.822ZM67.214 14.796H72.254V16.434H67.214V14.796ZM67.286 17.046H72.074V18.936H67.286V17.046ZM68.744 4.536H70.904V12.15H68.744V4.536ZM68.942 13.554H70.652V18.018H68.942V13.554ZM72.488 2.628L73.748 4.32C73.028 4.464 72.236 4.59 71.372 4.698C70.508 4.794 69.632 4.872 68.744 4.932C67.868 4.98 67.022 5.01 66.206 5.022C66.17 4.782 66.098 4.506 65.99 4.194C65.894 3.87 65.792 3.6 65.684 3.384C66.476 3.336 67.286 3.276 68.114 3.204C68.942 3.132 69.734 3.048 70.49 2.952C71.246 2.856 71.912 2.748 72.488 2.628ZM70.634 8.1C70.79 8.172 71.012 8.298 71.3 8.478C71.6 8.658 71.912 8.856 72.236 9.072C72.572 9.276 72.878 9.468 73.154 9.648C73.43 9.828 73.622 9.96 73.73 10.044L72.452 12.06C72.296 11.856 72.092 11.628 71.84 11.376C71.6 11.112 71.342 10.842 71.066 10.566C70.79 10.29 70.52 10.032 70.256 9.792C70.004 9.54 69.776 9.33 69.572 9.162L70.634 8.1ZM66.152 5.346L67.79 4.914C67.898 5.178 68.012 5.472 68.132 5.796C68.252 6.12 68.336 6.39 68.384 6.606L66.656 7.11C66.608 6.882 66.536 6.6 66.44 6.264C66.344 5.928 66.248 5.622 66.152 5.346ZM71.732 4.716L73.586 5.238C73.394 5.658 73.214 6.066 73.046 6.462C72.89 6.858 72.74 7.2 72.596 7.488L71.03 7.02C71.114 6.804 71.198 6.564 71.282 6.3C71.378 6.024 71.462 5.748 71.534 5.472C71.618 5.196 71.684 4.944 71.732 4.716ZM68.366 7.722L69.806 8.55C69.53 9.054 69.206 9.588 68.834 10.152C68.462 10.704 68.054 11.232 67.61 11.736C67.178 12.228 66.734 12.636 66.278 12.96C66.194 12.624 66.056 12.234 65.864 11.79C65.684 11.334 65.51 10.95 65.342 10.638C65.726 10.41 66.11 10.134 66.494 9.81C66.878 9.486 67.232 9.138 67.556 8.766C67.892 8.394 68.162 8.046 68.366 7.722ZM66.08 12.384H73.568V19.476H71.588V14.274H67.97V19.692H66.08V12.384ZM74.09 3.312H77.096V5.472H74.09V3.312ZM75.98 3.312H78.05V17.262C78.05 17.742 78.002 18.138 77.906 18.45C77.81 18.774 77.618 19.026 77.33 19.206C77.03 19.386 76.682 19.5 76.286 19.548C75.902 19.608 75.44 19.638 74.9 19.638C74.876 19.338 74.798 18.978 74.666 18.558C74.534 18.138 74.396 17.79 74.252 17.514C74.552 17.526 74.84 17.538 75.116 17.55C75.404 17.55 75.596 17.544 75.692 17.532C75.8 17.532 75.872 17.514 75.908 17.478C75.956 17.43 75.98 17.346 75.98 17.226V3.312ZM78.392 3.366H81.074V5.526H78.392V3.366ZM80.174 3.366H82.298V17.208C82.298 17.724 82.244 18.144 82.136 18.468C82.028 18.804 81.818 19.062 81.506 19.242C81.194 19.434 80.816 19.554 80.372 19.602C79.94 19.65 79.424 19.674 78.824 19.674C78.788 19.374 78.698 19.002 78.554 18.558C78.422 18.126 78.278 17.766 78.122 17.478C78.47 17.502 78.812 17.514 79.148 17.514C79.496 17.514 79.73 17.514 79.85 17.514C79.97 17.514 80.054 17.49 80.102 17.442C80.15 17.382 80.174 17.292 80.174 17.172V3.366ZM73.658 7.11L75.26 6.714C75.404 7.074 75.542 7.464 75.674 7.884C75.818 8.304 75.944 8.712 76.052 9.108C76.172 9.504 76.262 9.852 76.322 10.152L74.612 10.656C74.564 10.356 74.486 10.002 74.378 9.594C74.282 9.186 74.168 8.766 74.036 8.334C73.916 7.89 73.79 7.482 73.658 7.11ZM78.014 6.93L79.652 6.642C79.76 7.014 79.862 7.422 79.958 7.866C80.054 8.298 80.138 8.718 80.21 9.126C80.294 9.522 80.354 9.87 80.39 10.17L78.644 10.548C78.62 10.236 78.572 9.876 78.5 9.468C78.44 9.048 78.368 8.616 78.284 8.172C78.2 7.728 78.11 7.314 78.014 6.93ZM77.816 13.23C78.164 12.918 78.596 12.522 79.112 12.042C79.628 11.55 80.15 11.04 80.678 10.512L81.65 12.132C81.206 12.612 80.738 13.104 80.246 13.608C79.754 14.1 79.274 14.574 78.806 15.03L77.816 13.23ZM73.586 13.662C73.958 13.314 74.414 12.864 74.954 12.312C75.494 11.748 76.04 11.16 76.592 10.548L77.618 12.168C77.138 12.72 76.634 13.284 76.106 13.86C75.578 14.424 75.068 14.952 74.576 15.444L73.586 13.662Z" fill="#333333"/>
</g>
<path d="M2.508 36.96C1.7 36.96 1.14 36.776 0.828 36.408C0.66 36.216 0.576 36 0.576 35.76C0.576 35.184 1.008 34.556 1.872 33.876C2.152 33.652 2.42 33.54 2.676 33.54C2.74 33.54 2.772 33.552 2.772 33.576C2.772 33.632 2.672 33.7 2.472 33.78C2.128 33.924 1.832 34.188 1.584 34.572C1.328 34.964 1.2 35.336 1.2 35.688C1.2 36.336 1.712 36.66 2.736 36.66C3.368 36.66 3.928 36.564 4.416 36.372C5.488 35.956 6.344 35.416 6.984 34.752C7.544 34.184 7.824 33.64 7.824 33.12C7.824 32.488 7.44 32.172 6.672 32.172C5.456 32.172 4.552 32.02 3.96 31.716C3.472 31.468 3.228 31.14 3.228 30.732C3.228 30.028 3.76 29.444 4.824 28.98C5.688 28.588 6.512 28.392 7.296 28.392C7.936 28.392 8.44 28.524 8.808 28.788C8.904 28.844 8.952 28.924 8.952 29.028C8.952 29.18 8.856 29.336 8.664 29.496C8.48 29.656 8.344 29.728 8.256 29.712C8.24 29.712 8.268 29.66 8.34 29.556C8.444 29.428 8.496 29.312 8.496 29.208C8.496 29.112 8.46 29.028 8.388 28.956C8.172 28.724 7.776 28.608 7.2 28.608C6.56 28.608 5.904 28.748 5.232 29.028C4.528 29.332 4.1 29.688 3.948 30.096C3.868 30.304 3.828 30.492 3.828 30.66C3.828 31.372 4.824 31.728 6.816 31.728C8.016 31.728 8.616 32.088 8.616 32.808C8.616 33.416 8.228 34.108 7.452 34.884C6.66 35.66 5.804 36.208 4.884 36.528C4.06 36.816 3.268 36.96 2.508 36.96ZM14.9405 36.132C14.7805 36.132 14.6325 36.08 14.4965 35.976C14.3685 35.872 14.2925 35.772 14.2685 35.676C14.2445 35.564 14.3925 35.164 14.7125 34.476L14.4365 34.872C14.3165 35.048 14.1965 35.204 14.0765 35.34C13.9565 35.476 13.8445 35.596 13.7405 35.7C13.4365 35.988 13.1805 36.108 12.9725 36.06C12.4925 35.948 12.2525 35.676 12.2525 35.244C12.2525 34.9 12.4165 34.46 12.7445 33.924C12.8485 33.764 12.9805 33.604 13.1405 33.444C13.3005 33.284 13.4845 33.128 13.6925 32.976C14.2285 32.584 14.7445 32.388 15.2405 32.388C15.5445 32.388 15.8325 32.468 16.1045 32.628C16.1925 32.692 16.2365 32.76 16.2365 32.832C16.2365 32.888 16.2205 32.916 16.1885 32.916C16.1805 32.916 16.1725 32.912 16.1645 32.904C15.9965 32.72 15.7725 32.628 15.4925 32.628C15.1645 32.628 14.8085 32.752 14.4245 33C14.0405 33.248 13.6965 33.58 13.3925 33.996C12.9605 34.596 12.7445 35.084 12.7445 35.46C12.7445 35.676 12.8205 35.812 12.9725 35.868C13.1645 35.948 13.5725 35.592 14.1965 34.8C14.4525 34.488 14.6645 34.208 14.8325 33.96C15.0085 33.712 15.1485 33.5 15.2525 33.324C15.3005 33.236 15.3885 33.192 15.5165 33.192C15.7565 33.192 15.8765 33.264 15.8765 33.408C15.8765 33.432 15.8725 33.448 15.8645 33.456C15.1685 34.56 14.8205 35.308 14.8205 35.7C14.8205 35.796 14.8485 35.848 14.9045 35.856C15.0725 35.904 15.3525 35.78 15.7445 35.484C16.2165 35.132 16.6605 34.664 17.0765 34.08C17.1645 33.96 17.2445 33.9 17.3165 33.9C17.3405 33.9 17.3525 33.908 17.3525 33.924C17.3525 33.964 17.3165 34.04 17.2445 34.152C17.0765 34.416 16.8885 34.664 16.6805 34.896C16.4805 35.128 16.2565 35.344 16.0085 35.544C15.6565 35.84 15.3685 36.024 15.1445 36.096C15.0885 36.12 15.0205 36.132 14.9405 36.132ZM19.6127 39.696C19.3087 39.696 19.1567 39.544 19.1567 39.24C19.1567 38.992 19.2647 38.696 19.4807 38.352C19.6167 38.136 19.7887 37.904 19.9967 37.656C20.2127 37.416 20.4687 37.16 20.7647 36.888C21.2927 36.376 21.8527 35.932 22.4447 35.556C22.5807 35.22 22.6967 34.9 22.7927 34.596C22.8967 34.292 22.9847 34.008 23.0567 33.744C23.0007 33.84 22.6927 34.216 22.1327 34.872C21.4527 35.672 20.9847 36.072 20.7287 36.072C20.6967 36.072 20.6727 36.068 20.6567 36.06L20.2967 35.868C20.1847 35.804 20.1167 35.744 20.0927 35.688C20.0687 35.624 20.0567 35.56 20.0567 35.496C20.0567 35.28 20.1207 34.972 20.2487 34.572C20.3767 34.172 20.5767 33.684 20.8487 33.108C20.9687 32.852 21.1047 32.724 21.2567 32.724C21.3687 32.724 21.4767 32.808 21.5807 32.976L21.0527 34.02C20.6767 34.756 20.4887 35.268 20.4887 35.556C20.4887 35.748 20.5527 35.844 20.6807 35.844C20.9367 35.844 21.4167 35.408 22.1207 34.536C22.3527 34.256 22.5647 33.988 22.7567 33.732C22.9567 33.468 23.1367 33.212 23.2967 32.964C23.3527 32.884 23.4327 32.844 23.5367 32.844C23.7287 32.844 23.8247 32.916 23.8247 33.06C23.8247 33.092 23.8127 33.128 23.7887 33.168C23.7247 33.392 23.6367 33.668 23.5247 33.996C23.4207 34.316 23.2927 34.696 23.1407 35.136C23.3967 34.984 23.6007 34.908 23.7527 34.908C23.8167 34.908 23.8487 34.924 23.8487 34.956C23.8487 35.036 23.7487 35.112 23.5487 35.184C23.4687 35.216 23.3807 35.252 23.2847 35.292C23.1967 35.332 23.1007 35.38 22.9967 35.436C22.4367 36.828 21.7607 37.976 20.9687 38.88C20.4887 39.424 20.0367 39.696 19.6127 39.696ZM19.8647 39.444C20.0167 39.444 20.2007 39.32 20.4167 39.072C21.1287 38.272 21.7527 37.224 22.2887 35.928C21.2247 36.72 20.4327 37.544 19.9127 38.4C19.7367 38.68 19.6487 38.928 19.6487 39.144C19.6487 39.344 19.7207 39.444 19.8647 39.444ZM35.5257 36.564C35.1497 36.564 34.8057 36.492 34.4937 36.348C34.1817 36.212 33.9337 36.02 33.7497 35.772C33.5737 35.524 33.4857 35.236 33.4857 34.908C33.4857 34.732 33.5177 34.548 33.5817 34.356C33.6697 34.1 33.8057 33.88 33.9897 33.696C34.1817 33.504 34.4017 33.352 34.6497 33.24C34.9617 33.096 35.2697 33.024 35.5737 33.024C35.7817 33.024 35.8857 33.056 35.8857 33.12C35.8857 33.176 35.8177 33.212 35.6817 33.228C35.1697 33.292 34.7777 33.472 34.5057 33.768C34.2417 34.064 34.1097 34.436 34.1097 34.884C34.1097 35.324 34.2497 35.684 34.5297 35.964C34.8177 36.244 35.1857 36.384 35.6337 36.384C36.1537 36.384 36.6457 36.232 37.1097 35.928C37.5817 35.616 38.0097 35.204 38.3937 34.692C38.7777 34.172 39.1097 33.596 39.3897 32.964C39.6697 32.332 39.8817 31.688 40.0257 31.032C40.1137 30.6 40.1817 30.204 40.2297 29.844C40.2777 29.484 40.3017 29.164 40.3017 28.884C40.3017 28.636 40.2777 28.508 40.2297 28.5C40.1497 28.476 39.9977 28.528 39.7737 28.656C39.6217 28.736 39.4577 28.84 39.2817 28.968C39.1137 29.096 38.9337 29.248 38.7417 29.424C38.5657 29.576 38.3977 29.776 38.2377 30.024C38.0377 30.32 37.9377 30.58 37.9377 30.804C37.9377 30.996 38.0217 31.148 38.1897 31.26C38.3737 31.388 38.5497 31.452 38.7177 31.452C38.7897 31.452 38.8737 31.436 38.9697 31.404C39.0737 31.364 39.1577 31.344 39.2217 31.344C39.2937 31.344 39.3297 31.36 39.3297 31.392C39.3297 31.44 39.2137 31.496 38.9817 31.56C38.7657 31.616 38.5377 31.644 38.2977 31.644C38.0577 31.644 37.8497 31.584 37.6737 31.464C37.4977 31.344 37.4097 31.168 37.4097 30.936C37.4097 30.512 37.6857 30.056 38.2377 29.568C39.1817 28.72 39.9537 28.296 40.5537 28.296C40.7697 28.296 40.9097 28.332 40.9737 28.404C41.0377 28.468 41.0697 28.592 41.0697 28.776C41.0697 29.2 40.9497 29.856 40.7097 30.744C40.5017 31.504 40.2257 32.236 39.8817 32.94C39.5457 33.636 39.1537 34.256 38.7057 34.8C38.2657 35.344 37.7737 35.772 37.2297 36.084C36.6937 36.404 36.1257 36.564 35.5257 36.564ZM44.6273 36.204C44.0113 36.068 43.7033 35.788 43.7033 35.364C43.7033 35.244 43.7233 35.104 43.7633 34.944C43.8033 34.776 43.8673 34.592 43.9553 34.392L44.9753 32.1C44.8553 32.116 44.7233 32.132 44.5793 32.148C44.4353 32.164 44.2753 32.18 44.0993 32.196C44.0673 32.196 44.0513 32.168 44.0513 32.112C44.0513 32 44.0713 31.936 44.1113 31.92L45.1193 31.776L45.8993 30.192C45.9713 30.048 46.1953 29.976 46.5713 29.976C46.7473 29.976 46.8233 29.996 46.7993 30.036C46.6233 30.316 46.4433 30.6 46.2593 30.888C46.0833 31.168 45.9073 31.448 45.7313 31.728C45.7553 31.72 45.8073 31.712 45.8873 31.704C45.9673 31.696 46.0713 31.688 46.1992 31.68C46.2953 31.672 46.3873 31.668 46.4753 31.668C46.5633 31.66 46.6473 31.656 46.7273 31.656C47.0633 31.656 47.2233 31.672 47.2073 31.704C47.1513 31.76 46.6073 31.868 45.5753 32.028C44.7033 33.676 44.2673 34.84 44.2673 35.52C44.2673 35.768 44.3393 35.916 44.4833 35.964C44.5953 35.996 44.8793 35.848 45.3353 35.52C45.5993 35.328 45.8393 35.12 46.0553 34.896C46.2713 34.664 46.4673 34.42 46.6433 34.164C46.6993 34.084 46.7513 34.044 46.7993 34.044C46.8313 34.044 46.8473 34.06 46.8473 34.092C46.8473 34.124 46.8273 34.172 46.7873 34.236C46.4833 34.724 46.0793 35.184 45.5753 35.616C45.0873 36.04 44.7713 36.236 44.6273 36.204ZM62.8797 37.176C62.7037 37.176 62.5117 37.14 62.3037 37.068C61.5277 36.796 60.6837 36.212 59.7717 35.316C59.5077 35.06 59.2117 34.704 58.8837 34.248C58.4037 35.144 58.1157 35.764 58.0197 36.108C57.9717 36.268 57.8757 36.348 57.7317 36.348C57.5637 36.348 57.4957 36.26 57.5277 36.084C57.5437 35.964 57.6477 35.724 57.8397 35.364C58.0317 34.996 58.3037 34.508 58.6557 33.9C58.4797 33.636 58.3397 33.388 58.2357 33.156C58.0917 32.868 58.0197 32.68 58.0197 32.592C58.0197 32.52 58.0757 32.436 58.1877 32.34C58.3077 32.244 58.4077 32.196 58.4877 32.196C58.5037 32.196 58.5197 32.204 58.5357 32.22C58.6477 32.46 58.8757 32.688 59.2197 32.904C59.8277 31.824 60.2077 30.948 60.3597 30.276C60.3517 30.268 60.3397 30.264 60.3237 30.264L60.1557 30.36C60.0757 30.408 60.0157 30.432 59.9757 30.432C59.9437 30.432 59.9277 30.416 59.9277 30.384C60.0157 30.224 60.1357 30.056 60.2877 29.88L60.5877 29.532C60.6517 29.468 60.7157 29.412 60.7797 29.364C60.8437 29.308 60.9157 29.268 60.9957 29.244C61.0437 29.228 61.0797 29.22 61.1037 29.22C61.2157 29.22 61.2717 29.3 61.2717 29.46C61.2717 29.612 61.2157 29.832 61.1037 30.12C60.8557 30.752 60.3357 31.744 59.5437 33.096C59.9517 33.296 60.2957 33.4 60.5757 33.408C60.6397 33.416 60.6997 33.42 60.7557 33.42C60.8117 33.42 60.8677 33.42 60.9237 33.42C61.7877 33.42 62.5837 33.224 63.3117 32.832C64.0157 32.464 64.4797 32.036 64.7037 31.548C64.8157 31.3 64.8717 31.056 64.8717 30.816C64.8717 30.232 64.5877 29.736 64.0197 29.328C63.4277 28.888 62.6277 28.644 61.6197 28.596C61.4837 28.588 61.3477 28.584 61.2117 28.584C61.0757 28.576 60.9397 28.572 60.8037 28.572C59.1957 28.572 57.9237 28.804 56.9877 29.268C56.1957 29.66 55.7997 30.088 55.7997 30.552C55.7997 30.664 55.8277 30.76 55.8837 30.84C55.9237 30.936 56.0277 31 56.1957 31.032C56.2517 31.048 56.3077 31.06 56.3637 31.068C56.4197 31.068 56.4677 31.068 56.5077 31.068H56.6277C56.7157 31.068 56.7597 31.084 56.7597 31.116C56.7597 31.196 56.6797 31.236 56.5197 31.236C55.7517 31.236 55.2877 31.14 55.1277 30.948C55.0557 30.86 55.0197 30.756 55.0197 30.636C55.0197 30.108 55.5077 29.62 56.4837 29.172C57.6437 28.652 59.2037 28.392 61.1637 28.392H61.6677C62.8037 28.416 63.7357 28.66 64.4637 29.124C65.1997 29.596 65.5677 30.152 65.5677 30.792C65.5677 31.056 65.4997 31.324 65.3637 31.596C65.0357 32.22 64.4637 32.72 63.6477 33.096C62.8717 33.456 62.0237 33.636 61.1037 33.636C60.5117 33.636 59.9437 33.536 59.3997 33.336C59.3117 33.504 59.2357 33.632 59.1717 33.72C59.4037 34.064 59.6237 34.364 59.8317 34.62C60.0397 34.876 60.2317 35.084 60.4077 35.244C61.5917 36.34 62.4757 36.888 63.0597 36.888C63.1797 36.888 63.3357 36.864 63.5277 36.816C63.6477 36.784 63.7637 36.712 63.8757 36.6C63.9877 36.496 64.0597 36.444 64.0917 36.444C64.1877 36.444 64.2357 36.5 64.2357 36.612C64.2357 36.7 64.0597 36.812 63.7077 36.948C63.6517 36.972 63.5957 36.996 63.5397 37.02C63.4917 37.044 63.4397 37.064 63.3837 37.08C63.2077 37.144 63.0397 37.176 62.8797 37.176ZM58.9557 33.372C58.9717 33.34 58.9917 33.308 59.0157 33.276C59.0397 33.244 59.0597 33.212 59.0757 33.18L58.8117 33.048C58.8357 33.128 58.8837 33.236 58.9557 33.372ZM70.5199 31.788C70.3919 31.804 70.2519 31.788 70.0999 31.74C69.9559 31.692 69.8839 31.632 69.8839 31.56C69.8839 31.512 69.8999 31.464 69.9319 31.416C69.9639 31.36 70.0039 31.304 70.0519 31.248C70.1879 31.08 70.2679 30.976 70.2919 30.936C70.3159 30.888 70.3599 30.864 70.4239 30.864C70.6079 30.864 70.7519 30.952 70.8559 31.128C70.8639 31.136 70.8679 31.152 70.8679 31.176C70.8679 31.248 70.8279 31.352 70.7479 31.488C70.6439 31.68 70.5679 31.78 70.5199 31.788ZM68.7079 36.12C68.2439 36.016 68.0119 35.832 68.0119 35.568C68.0119 35.44 68.1679 34.988 68.4799 34.212C68.5679 34.06 68.6839 33.84 68.8279 33.552C68.9799 33.256 69.1679 32.896 69.3919 32.472C69.4319 32.408 69.5199 32.376 69.6559 32.376C69.7759 32.376 69.8919 32.396 70.0039 32.436C70.1239 32.468 70.1719 32.5 70.1479 32.532C69.0919 34.028 68.5639 35.064 68.5639 35.64C68.5639 35.808 68.6199 35.892 68.7319 35.892C68.9479 35.892 69.2879 35.74 69.7519 35.436C70.3039 35.06 70.7679 34.608 71.1439 34.08C71.2239 33.952 71.3039 33.888 71.3839 33.888C71.4079 33.888 71.4199 33.9 71.4199 33.924C71.4199 33.964 71.3839 34.04 71.3119 34.152C70.9599 34.704 70.4719 35.192 69.8479 35.616C69.2879 36 68.9079 36.168 68.7079 36.12ZM73.7663 39.696C73.4623 39.696 73.3103 39.544 73.3103 39.24C73.3103 38.992 73.4183 38.696 73.6343 38.352C73.7703 38.136 73.9423 37.904 74.1503 37.656C74.3663 37.416 74.6223 37.16 74.9183 36.888C75.4463 36.376 76.0063 35.932 76.5983 35.556C76.6703 35.38 76.7503 35.164 76.8383 34.908C76.9263 34.652 77.0263 34.348 77.1383 33.996C77.1143 34.052 77.0263 34.168 76.8743 34.344C76.7303 34.512 76.5183 34.748 76.2383 35.052C75.5663 35.796 75.0903 36.132 74.8103 36.06C74.3783 35.948 74.1623 35.708 74.1623 35.34C74.1623 34.98 74.3743 34.508 74.7983 33.924C74.9183 33.764 75.0663 33.604 75.2423 33.444C75.4183 33.284 75.6183 33.128 75.8423 32.976C76.4103 32.584 76.9463 32.388 77.4503 32.388C77.7623 32.388 78.0463 32.468 78.3023 32.628C78.3743 32.676 78.4103 32.736 78.4103 32.808C78.4103 32.88 78.3943 32.916 78.3623 32.916C78.3543 32.916 78.3463 32.912 78.3383 32.904C78.1783 32.72 77.9583 32.628 77.6783 32.628C77.3503 32.628 76.9823 32.752 76.5743 33C76.1663 33.248 75.7903 33.58 75.4463 33.996C74.9103 34.652 74.6423 35.164 74.6423 35.532C74.6423 35.7 74.7063 35.812 74.8343 35.868C75.0103 35.94 75.4543 35.584 76.1663 34.8C76.4463 34.488 76.6863 34.208 76.8863 33.96C77.0943 33.712 77.2583 33.5 77.3783 33.324C77.4343 33.244 77.5143 33.204 77.6183 33.204C77.8103 33.204 77.9063 33.276 77.9063 33.42C77.9063 33.452 77.8943 33.488 77.8703 33.528C77.8143 33.688 77.7383 33.904 77.6423 34.176C77.5463 34.44 77.4303 34.76 77.2943 35.136C77.5503 34.984 77.7543 34.908 77.9063 34.908C77.9703 34.908 78.0023 34.924 78.0023 34.956C78.0023 35.036 77.9023 35.112 77.7023 35.184C77.6223 35.216 77.5343 35.252 77.4383 35.292C77.3503 35.332 77.2543 35.38 77.1503 35.436C76.5903 36.828 75.9143 37.976 75.1223 38.88C74.6423 39.424 74.1903 39.696 73.7663 39.696ZM74.0183 39.444C74.1703 39.444 74.3543 39.32 74.5703 39.072C75.2823 38.272 75.9063 37.224 76.4423 35.928C75.3783 36.72 74.5863 37.544 74.0663 38.4C73.8903 38.68 73.8023 38.928 73.8023 39.144C73.8023 39.344 73.8743 39.444 74.0183 39.444ZM84.7322 36.12C84.5562 36.136 84.3882 36.092 84.2282 35.988C84.0682 35.876 83.9882 35.752 83.9882 35.616C83.9882 35.368 84.2242 34.892 84.6962 34.188C85.2162 33.404 85.4762 32.952 85.4762 32.832C85.4762 32.76 85.4362 32.724 85.3562 32.724C85.1482 32.724 84.7482 33.032 84.1562 33.648C83.8042 34 83.4722 34.38 83.1602 34.788C82.8562 35.188 82.5682 35.612 82.2962 36.06C82.2802 36.076 82.2362 36.084 82.1642 36.084C81.8122 36.084 81.6522 36.036 81.6842 35.94C81.8202 35.572 81.9922 35.16 82.2002 34.704C82.4082 34.248 82.6562 33.74 82.9442 33.18C83.8962 31.34 84.5442 30.288 84.8882 30.024C84.9842 29.952 85.1162 29.916 85.2842 29.916C85.5642 29.916 85.7042 29.972 85.7042 30.084C85.7042 30.108 85.6802 30.14 85.6322 30.18C84.5842 30.956 83.6562 32.416 82.8482 34.56C82.8562 34.552 82.8962 34.516 82.9682 34.452C83.0482 34.38 83.1602 34.276 83.3042 34.14C83.4562 34.004 83.5842 33.88 83.6882 33.768C83.8002 33.648 83.8962 33.544 83.9762 33.456C84.3682 33.016 84.8002 32.688 85.2722 32.472C85.3842 32.424 85.5122 32.4 85.6562 32.4C85.9842 32.4 86.1482 32.52 86.1482 32.76C86.1482 32.912 86.0722 33.092 85.9202 33.3C85.0562 34.508 84.6242 35.32 84.6242 35.736C84.6242 35.824 84.6522 35.88 84.7082 35.904C84.8362 35.96 85.1522 35.828 85.6562 35.508C86.2482 35.124 86.7522 34.648 87.1682 34.08C87.2562 33.96 87.3362 33.9 87.4082 33.9C87.4322 33.9 87.4442 33.908 87.4442 33.924C87.4442 33.964 87.4082 34.04 87.3362 34.152C86.9842 34.704 86.4962 35.192 85.8722 35.616C85.3122 35.984 84.9322 36.152 84.7322 36.12ZM91.3171 36.204C90.7011 36.068 90.3931 35.788 90.3931 35.364C90.3931 35.244 90.4131 35.104 90.4531 34.944C90.4931 34.776 90.5571 34.592 90.6451 34.392L91.6651 32.1C91.5451 32.116 91.4131 32.132 91.2691 32.148C91.1251 32.164 90.9651 32.18 90.7891 32.196C90.7571 32.196 90.7411 32.168 90.7411 32.112C90.7411 32 90.7611 31.936 90.8011 31.92L91.8091 31.776L92.5891 30.192C92.6611 30.048 92.8851 29.976 93.2611 29.976C93.4371 29.976 93.5131 29.996 93.4891 30.036C93.3131 30.316 93.1331 30.6 92.9491 30.888C92.7731 31.168 92.5971 31.448 92.4211 31.728C92.4451 31.72 92.4971 31.712 92.5771 31.704C92.6571 31.696 92.7611 31.688 92.8891 31.68C92.9851 31.672 93.0771 31.668 93.1651 31.668C93.2531 31.66 93.3371 31.656 93.4171 31.656C93.7531 31.656 93.9131 31.672 93.8971 31.704C93.8411 31.76 93.2971 31.868 92.2651 32.028C91.3931 33.676 90.9571 34.84 90.9571 35.52C90.9571 35.768 91.0291 35.916 91.1731 35.964C91.2851 35.996 91.5691 35.848 92.0251 35.52C92.2891 35.328 92.5291 35.12 92.7451 34.896C92.9611 34.664 93.1571 34.42 93.3331 34.164C93.3891 34.084 93.4411 34.044 93.4891 34.044C93.5211 34.044 93.5371 34.06 93.5371 34.092C93.5371 34.124 93.5171 34.172 93.4771 34.236C93.1731 34.724 92.7691 35.184 92.2651 35.616C91.7771 36.04 91.4611 36.236 91.3171 36.204Z" fill="#333333" fill-opacity="0.3"/>
<defs>
<filter id="filter0_d_424_10" x="10.6924" y="2.62793" width="77.6055" height="25.064" filterUnits="userSpaceOnUse" color-interpolation-filters="sRGB">
<feFlood flood-opacity="0" result="BackgroundImageFix"/>
<feColorMatrix in="SourceAlpha" type="matrix" values="0 0 0 0 0 0 0 0 0 0 0 0 0 0 0 0 0 0 127 0" result="hardAlpha"/>
<feOffset dx="2" dy="4"/>
<feGaussianBlur stdDeviation="2"/>
<feComposite in2="hardAlpha" operator="out"/>
<feColorMatrix type="matrix" values="0 0 0 0 0 0 0 0 0 0 0 0 0 0 0 0 0 0 0.08 0"/>
<feBlend mode="normal" in2="BackgroundImageFix" result="effect1_dropShadow_424_10"/>
<feBlend mode="normal" in="SourceGraphic" in2="effect1_dropShadow_424_10" result="shape"/>
</filter>
</defs>
</svg>
